HIERARCHY
ROOT Hips
{
	OFFSET -72.282547 91.867981 178.233994
	CHANNELS 6 Xposition Yposition Zposition Zrotation Yrotation Xrotation 
	JOINT LeftUpLeg
	{
		OFFSET 0.103457 1.857823 10.548503
		CHANNELS 3 Zrotation Yrotation Xrotation
		JOINT LeftLeg
		{
			OFFSET 43.499996 -0.000034 0.000002
			CHANNELS 3 Zrotation Yrotation Xrotation
			JOINT LeftFoot
			{
				OFFSET 42.372192 0.000011 -0.000001
				CHANNELS 3 Zrotation Yrotation Xrotation
				JOINT LeftToe
				{
					OFFSET 17.300007 0.000003 0.000000
					CHANNELS 3 Zrotation Yrotation Xrotation
					End Site
					{
						OFFSET 0.000000 0.000000 0.000000
					}
				}
			}
		}
	}
	JOINT RightUpLeg
	{
		OFFSET 0.103457 1.857824 -10.548503
		CHANNELS 3 Zrotation Yrotation Xrotation
		JOINT RightLeg
		{
			OFFSET 43.500046 -0.000027 0.000015
			CHANNELS 3 Zrotation Yrotation Xrotation
			JOINT RightFoot
			{
				OFFSET 42.372261 0.000004 0.000017
				CHANNELS 3 Zrotation Yrotation Xrotation
				JOINT RightToe
				{
					OFFSET 17.299995 -0.000004 -0.000002
					CHANNELS 3 Zrotation Yrotation Xrotation
					End Site
					{
						OFFSET 0.000000 0.000000 0.000000
					}
				}
			}
		}
	}
	JOINT Spine
	{
		OFFSET 6.901969 -2.603723 -0.000001
		CHANNELS 3 Zrotation Yrotation Xrotation
		JOINT Spine1
		{
			OFFSET 12.588095 -0.000003 0.000006
			CHANNELS 3 Zrotation Yrotation Xrotation
			JOINT Spine2
			{
				OFFSET 12.343204 0.000006 -0.000008
				CHANNELS 3 Zrotation Yrotation Xrotation
				JOINT Neck
				{
					OFFSET 25.832893 -0.000006 0.000003
					CHANNELS 3 Zrotation Yrotation Xrotation
					JOINT Head
					{
						OFFSET 11.766609 -0.000008 0.000000
						CHANNELS 3 Zrotation Yrotation Xrotation
						End Site
						{
							OFFSET 0.000000 0.000000 0.000000
						}
					}
				}
				JOINT LeftShoulder
				{
					OFFSET 19.745899 -1.480379 6.000108
					CHANNELS 3 Zrotation Yrotation Xrotation
					JOINT LeftArm
					{
						OFFSET 11.284125 -0.000006 -0.000023
						CHANNELS 3 Zrotation Yrotation Xrotation
						JOINT LeftForeArm
						{
							OFFSET 33.000050 -0.000002 0.000027
							CHANNELS 3 Zrotation Yrotation Xrotation
							JOINT LeftHand
							{
								OFFSET 25.200008 0.000014 0.000008
								CHANNELS 3 Zrotation Yrotation Xrotation
								End Site
								{
									OFFSET 0.000000 0.000000 0.000000
								}
							}
						}
					}
				}
				JOINT RightShoulder
				{
					OFFSET 19.746098 -1.480379 -6.000071
					CHANNELS 3 Zrotation Yrotation Xrotation
					JOINT RightArm
					{
						OFFSET 11.284139 -0.000009 -0.000009
						CHANNELS 3 Zrotation Yrotation Xrotation
						JOINT RightForeArm
						{
							OFFSET 33.000092 0.000008 0.000008
							CHANNELS 3 Zrotation Yrotation Xrotation
							JOINT RightHand
							{
								OFFSET 25.199780 0.000137 0.000422
								CHANNELS 3 Zrotation Yrotation Xrotation
								End Site
								{
									OFFSET 0.000000 0.000000 0.000000
								}
							}
						}
					}
				}
			}
		}
	}
}
MOTION
Frames: 14
Frame Time: 0.033333
-72.282547 91.867981 178.233994 88.764025 5.198798 88.670431 -172.612964 -4.215106 166.649922 -16.376924 -2.259202 -1.330348 86.850486 0.614914 -2.024194 21.454555 0.003094 0.000000 -176.257417 0.511502 179.762793 -18.607582 3.550383 15.242790 83.906702 -9.200591 7.943821 21.454560 -0.003093 -0.000016 6.630072 0.333539 -0.206261 3.212831 0.693707 -0.381496 2.894730 0.691521 -0.385690 3.132910 -3.457833 -3.126274 -10.581850 2.941051 -4.925398 -81.699328 -79.292588 -101.076951 -7.781197 2.237818 -24.579650 -24.972370 -19.173620 1.419196 15.908270 4.757253 5.884189 42.346128 85.319308 -136.100289 0.439740 -10.794541 30.778820 -28.701852 20.432311 -1.581820 17.351081 -4.504973 -13.347457 
-72.292068 91.865784 178.219498 88.767420 5.212824 88.682384 -172.612951 -4.221399 166.643106 -16.384131 -2.255871 -1.317195 86.856053 0.605004 -2.028215 21.454553 0.003091 -0.000000 -176.249685 0.506003 179.789908 -18.607565 3.542792 15.235802 83.917200 -9.200569 7.931221 21.454557 -0.003107 -0.000019 6.630071 0.333536 -0.206264 3.215914 0.693702 -0.385680 2.897804 0.691518 -0.389867 3.125857 -3.455229 -3.124227 -10.587828 2.934754 -4.921143 -81.644345 -79.288046 -101.132746 -7.805899 2.222052 -24.557510 -24.966104 -19.211674 1.419183 15.909117 4.820488 5.929617 42.453034 85.319349 -135.994312 0.452235 -10.782029 30.763350 -28.721567 20.435141 -1.581822 17.368193 -4.495199 -13.333937 
-72.311020 91.861069 178.187103 88.777740 5.244460 88.705265 -172.612951 -4.229593 166.623585 -16.403290 -2.244438 -1.286656 86.866954 0.581764 -2.038536 21.454553 0.003096 0.000001 -176.236188 0.497299 179.843198 -18.613592 3.525827 15.222087 83.940532 -9.200584 7.904008 21.454560 -0.003094 -0.000016 6.630080 0.333539 -0.206247 3.223193 0.689937 -0.393112 2.905080 0.687676 -0.397256 3.112610 -3.435231 -3.116978 -10.604428 2.901475 -4.899610 -81.549672 -79.279597 -101.228806 -7.869102 2.172580 -24.505809 -24.943494 -19.255155 1.419197 15.958740 4.872191 5.797762 42.681828 85.319267 -135.767495 0.478871 -10.754431 30.727587 -28.763863 20.445432 -1.581827 17.391661 -4.481005 -13.311313 
-72.328758 91.857391 178.150101 88.790533 5.271809 88.715551 -172.618169 -4.232196 166.620648 -16.419338 -2.238756 -1.271879 86.871926 0.569185 -2.050118 21.454553 0.003099 0.000001 -176.237445 0.490907 179.873483 -18.629922 3.509625 15.214559 83.961664 -9.200576 7.877563 21.454558 -0.003103 -0.000017 6.630076 0.333541 -0.206254 3.229963 0.684168 -0.397023 2.911847 0.681913 -0.401140 3.109928 -3.419382 -3.111270 -10.635440 2.871602 -4.881954 -81.530916 -79.278409 -101.247726 -7.926846 2.120238 -24.481927 -24.901843 -19.234294 1.419185 15.930200 4.789790 5.638120 42.743249 85.319349 -135.706679 0.480432 -10.736642 30.705754 -28.792625 20.460047 -1.581809 17.367305 -4.487358 -13.316421 
-72.350700 91.854713 178.109207 88.800594 5.299617 88.726152 -172.623346 -4.242802 166.628776 -16.432160 -2.241572 -1.261959 86.872780 0.560213 -2.060935 21.454555 0.003108 0.000001 -176.238060 0.475800 179.885080 -18.639588 3.493724 15.219118 83.977873 -9.209230 7.850045 21.454558 -0.003102 -0.000016 6.630076 0.333532 -0.206258 3.237616 0.678264 -0.403186 2.919502 0.675962 -0.407266 3.114495 -3.427046 -3.119592 -10.677740 2.874344 -4.894532 -81.599744 -79.284576 -101.177887 -7.976376 2.084766 -24.562605 -24.913993 -19.205983 1.419197 15.905181 4.739378 5.661745 42.713343 85.321275 -135.736322 0.466957 -10.722050 30.709111 -28.824672 20.456014 -1.581823 17.333931 -4.484155 -13.339423 
-72.378311 91.852928 178.063004 88.805484 5.328110 88.742681 -172.629275 -4.266404 166.633257 -16.441283 -2.249559 -1.245770 86.870785 0.547406 -2.069216 21.454553 0.003092 0.000001 -176.234385 0.449400 179.878236 -18.634984 3.481946 15.238712 83.988446 -9.228950 7.819499 21.454562 -0.003102 -0.000015 6.630068 0.333531 -0.211112 3.246145 0.672720 -0.412945 2.928034 0.670353 -0.416997 3.106917 -3.470247 -3.151853 -10.712083 2.930548 -4.956519 -81.684821 -79.298401 -101.090980 -8.015928 2.084738 -24.683242 -24.972522 -19.192664 1.419193 15.891827 4.743412 5.837828 42.533668 85.335994 -135.913975 0.429840 -10.708200 30.726135 -28.863498 20.435357 -1.582610 17.306871 -4.466087 -13.358582 
-72.410637 91.853157 178.011398 88.810539 5.354132 88.776012 -172.629261 -4.297607 166.610990 -16.423764 -2.258141 -1.205017 86.856251 0.518862 -2.069767 21.454553 0.003090 -0.000000 -176.223279 0.420205 179.858770 -18.605983 3.481853 15.275214 83.993329 -9.261646 7.783659 21.454557 -0.003102 -0.000018 6.633427 0.329559 -0.220107 3.252798 0.665024 -0.431000 2.934687 0.662538 -0.434999 3.081374 -3.534736 -3.207780 -10.733180 3.034307 -5.062259 -81.770383 -79.321869 -101.002549 -8.045077 2.111494 -24.712714 -25.030178 -19.213916 1.419172 15.879469 4.748327 5.927468 42.271416 85.361177 -136.173372 0.374191 -10.695631 30.735544 -28.902960 20.409662 -1.583324 17.292880 -4.436335 -13.344487 
-72.443878 91.851608 177.957199 88.810190 5.382326 88.792780 -172.621379 -4.328899 166.577003 -16.397957 -2.263114 -1.169419 86.849509 0.493628 -2.072431 21.454553 0.003100 0.000001 -176.210548 0.390899 179.809197 -18.570922 3.496498 15.318130 84.002256 -9.300353 7.742080 21.454558 -0.003096 -0.000017 6.636901 0.324315 -0.225738 3.257429 0.654711 -0.442408 2.939318 0.652168 -0.446352 3.057192 -3.584883 -3.286106 -10.747603 3.147547 -5.189707 -81.832414 -79.365753 -100.935777 -8.054890 2.145225 -24.698331 -25.071063 -19.221054 1.419194 15.885413 4.698489 5.940566 42.168881 85.381026 -136.274500 0.331918 -10.679850 30.722860 -28.942250 20.387481 -1.583950 17.288910 -4.408279 -13.280005 
-72.475273 91.846184 177.901505 88.802459 5.415680 88.776757 -172.599837 -4.355100 166.522853 -16.364962 -2.259209 -1.144979 86.859625 0.475347 -2.080641 21.454550 0.003095 -0.000000 -176.198499 0.363798 179.755867 -18.540840 3.515184 15.342961 84.021996 -9.327967 7.694454 21.454563 -0.003111 -0.000020 6.639784 0.317617 -0.223413 3.263416 0.641255 -0.437923 2.945319 0.638752 -0.441795 3.021691 -3.605380 -3.369070 -10.744244 3.240706 -5.307894 -81.846929 -79.423161 -100.915369 -8.057730 2.176672 -24.668676 -25.089308 -19.210658 1.419190 15.889187 4.635039 5.937196 42.153486 85.397760 -136.289362 0.305623 -10.665041 30.692633 -28.982545 20.374285 -1.584520 17.312825 -4.358548 -13.242924 
-72.508667 91.834473 177.845200 88.782911 5.453747 88.734095 -172.568595 -4.385801 166.449388 -16.333661 -2.247360 -1.128686 86.899821 0.461851 -2.096064 21.454555 0.003090 -0.000001 -176.183978 0.329305 179.732439 -18.514220 3.525064 15.335243 84.059726 -9.334645 7.639913 21.454558 -0.003108 -0.000019 6.641184 0.311405 -0.216233 3.270216 0.628632 -0.423736 2.952102 0.626204 -0.427527 2.981570 -3.606284 -3.433835 -10.725099 3.303926 -5.393070 -81.875971 -79.459976 -100.882632 -8.088567 2.194950 -24.600668 -25.072586 -19.210455 1.419181 15.919919 4.664752 5.989185 42.350629 85.397042 -136.093691 0.305055 -10.651101 30.648923 -29.029363 20.378662 -1.585050 17.386069 -4.283916 -13.176599 
-72.553879 91.819946 177.788696 88.731862 5.498105 88.656183 -172.525469 -4.454398 166.410961 -16.308830 -2.259396 -1.155844 86.963020 0.477608 -2.121279 21.454553 0.003075 -0.000003 -176.156275 0.255604 179.739010 -18.470712 3.510336 15.292795 84.093788 -9.317485 7.582017 21.454558 -0.003101 -0.000018 6.641749 0.309800 -0.204533 3.282367 0.628065 -0.400300 2.964256 0.625774 -0.404085 2.920403 -3.590087 -3.473568 -10.681540 3.338122 -5.439201 -82.085685 -79.459750 -100.671620 -8.147639 2.172407 -24.520324 -25.032362 -19.195851 1.419187 15.912022 4.663911 5.912752 42.726088 85.378307 -135.721842 0.317548 -10.636050 30.614892 -29.084977 20.391117 -1.585567 17.420068 -4.226231 -13.170992 
-72.596573 91.805061 177.722794 88.683620 5.508710 88.510919 -172.502984 -4.503307 166.381550 -16.266720 -2.281923 -1.229837 87.022955 0.525051 -2.152110 21.454551 0.003094 -0.000001 -176.203403 0.196789 179.782668 -18.487533 3.477629 15.187815 84.139284 -9.256940 7.523460 21.454560 -0.003110 -0.000016 6.642273 0.308369 -0.181011 3.280106 0.621597 -0.353359 2.962003 0.619604 -0.357108 2.864454 -3.571797 -3.502391 -10.638336 3.363274 -5.470897 -82.204298 -79.474695 -100.550917 -8.153929 2.187340 -24.511326 -25.018088 -19.176610 1.419205 15.854235 4.648219 5.924194 43.075896 85.365234 -135.375210 0.309268 -10.618531 30.600702 -29.130675 20.404178 -1.586097 17.422501 -4.309510 -13.268285 
-72.633591 91.794197 177.651794 88.646730 5.504536 88.359125 -172.494542 -4.527601 166.377739 -16.210848 -2.298856 -1.326314 87.062290 0.587045 -2.186065 21.454553 0.003109 0.000000 -176.278877 0.156297 179.729502 -18.516552 3.479935 15.131106 84.176351 -9.229700 7.466204 21.454558 -0.003117 -0.000016 6.643525 0.302781 -0.157105 3.273417 0.609759 -0.305741 2.955321 0.608044 -0.309425 2.805982 -3.557669 -3.530622 -10.606637 3.385590 -5.502632 -82.295679 -79.486292 -100.457896 -8.148520 2.211996 -24.552240 -25.012904 -19.174988 1.419202 15.795472 4.707066 5.875287 43.376346 85.358643 -135.077455 0.286423 -10.605878 30.601710 -29.166482 20.415736 -1.586686 17.401451 -4.391133 -13.327951 
-72.664009 91.786270 177.582504 88.625427 5.515889 88.228374 -172.481497 -4.530704 166.390867 -16.162622 -2.303632 -1.418882 87.079455 0.645750 -2.219735 21.454548 0.003089 -0.000002 -176.335964 0.142196 179.673290 -18.544752 3.503108 15.084386 84.212209 -9.209990 7.407706 21.454558 -0.003108 -0.000015 6.646304 0.295472 -0.136929 3.279141 0.594614 -0.265552 2.961013 0.593121 -0.269134 2.735837 -3.548299 -3.563471 -10.585419 3.402940 -5.539426 -82.354828 -79.483239 -100.398740 -8.153564 2.237906 -24.615087 -25.037380 -19.199901 1.419194 15.794242 4.765193 5.838840 43.692618 85.350003 -134.764113 0.288044 -10.597649 30.602659 -29.216421 20.409541 -1.587317 17.384488 -4.410183 -13.299572 
